PathFileType	4	(X/Y/Z)	C:\Users\willi\Desktop\Data_PaperCallum_v2\17_Akif\Gait04\marker_experimental_temp.trc
DataRate	CameraRate	NumFrames	NumMarkers	Units	OrigDataRate	OrigDataStartFrame	OrigNumFrames
100.000000	100.000000	6	27	mm	100.000000	113	181
Frame#	Time	C7			T10			Clav			Sternum			Right_Back			PCL_CRAN			PCL_RECHTS			PCL_LINKS			RCL_UL_CRAN			RCL_UL_POST			RCL_UL_ANT			RCL_LL_CRAN			RCL_LL_POST			RCL_LL_ANT			Right_Heel			Right_Toe			Right_M5			LCL_UL_CRAN			LCL_UL_POST			LCL_UL_ANT			LCL_LL_CRAN			LCL_LL_POST			LCL_LL_ANT			Left_Heel			Left_Toe			Left_M5			*26			
		X1	Y1	Z1	X2	Y2	Z2	X3	Y3	Z3	X4	Y4	Z4	X5	Y5	Z5	X6	Y6	Z6	X7	Y7	Z7	X8	Y8	Z8	X9	Y9	Z9	X10	Y10	Z10	X11	Y11	Z11	X12	Y12	Z12	X13	Y13	Z13	X14	Y14	Z14	X15	Y15	Z15	X16	Y16	Z16	X17	Y17	Z17	X18	Y18	Z18	X19	Y19	Z19	X20	Y20	Z20	X21	Y21	Z21	X22	Y22	Z22	X23	Y23	Z23	X24	Y24	Z24	X25	Y25	Z25	X26	Y26	Z26	X27	Y27	Z27	

114	1.13	-29.28437614440926	1375.668579101563	138.1444549560547	-6.290141582489076	1159.442260742188	149.553466796875	-174.9696655273438	1313.9814453125	168.9644317626953	-244.7287292480469	1153.98779296875	186.7177276611328	-21.03327941894539	1311.066162109375	20.26253128051758	-21.11120033264165	993.4208374023438	160.4022216796875	-10.63088607788091	934.6343383789063	136.3771514892578	-13.29264259338384	933.2377319335938	186.7561492919922	-67.81327819824223	712.1046752929688	-17.15540313720703	-33.7556648254395	657.1943359375	-11.47409725189209	-82.49169921875004	649.0123291015625	-20.2165412902832	95.11384582519528	391.6969299316406	10.77456092834472	146.9497833251953	351.7147521972656	9.374905586242667	103.0356521606445	326.6774597167969	15.70555782318115	318.5855102539063	116.3353652954102	96.09072113037108	148.7853088378906	28.84306526184083	111.705322265625	195.6401824951172	10.54957103729249	54.19171142578124	-187.7538146972657	727.7489013671875	331.9533386230469	-194.1105499267578	662.2793579101563	328.6852722167969	-237.8540954589844	685.2694091796875	329.4537963867188	-287.4319763183594	364.554931640625	297.9118041992188	-285.7503967285156	299.171142578125	296.3087463378906	-332.3663940429688	316.6396789550781	295.3092041015625	-344.5115356445313	16.38181304931638	213.9656829833985	-531.1454467773438	85.79016113281247	233.5381469726563	-499.3861083984375	41.46114730834958	282.9862976074219	-88.05744934082055	726.5052490234375	-3209.67431640625	
115	1.14	-44.45429992675789	1374.620483398438	139.9626617431641	-22.06325721740729	1158.2978515625	150.798095703125	-190.4970703125001	1313.1455078125	170.1200866699219	-260.7280273437501	1153.303100585938	187.2315673828125	-35.76582717895516	1310.266845703125	22.02335357666016	-37.39430618286138	992.4684448242188	161.0444030761719	-26.96447944641118	933.5222778320313	137.4310913085938	-29.66405677795415	932.4489135742188	187.8242340087891	-84.19265747070317	710.2894287109375	-16.47600173950195	-50.22901916503911	655.2970581054688	-11.11107063293457	-98.90602111816411	647.308837890625	-20.257173538208	80.44627380371091	391.5167846679688	9.273584365844721	133.9896850585937	353.4169616699219	8.319256782531729	90.53311920166014	326.8824768066406	14.04056453704833	310.9606018066406	124.5556335449219	94.86584472656249	149.4071197509766	28.18633842468263	111.8554611206055	195.9973754882813	11.3010540008545	54.43300247192381	-205.2139282226563	727.8560791015625	332.8109130859375	-212.2351531982422	662.6607055664063	328.9397583007813	-255.8325958251953	685.8215942382813	329.56689453125	-302.8346862792969	364.239990234375	297.7909545898438	-299.8191833496094	298.9683532714844	296.0351257324219	-346.5896301269531	315.3867492675781	294.5650329589844	-346.493896484375	16.81147766113279	213.5390777587891	-537.140625	75.9321594238281	228.1697845458985	-503.8844604492188	33.95935058593747	279.2971801757813	-88.0581207275393	726.505859375	-3209.679931640625	
116	1.15	-59.61571884155281	1373.842651367188	141.8061065673828	-37.83878326416022	1157.421630859375	151.9869384765625	-206.0209503173829	1312.582641601563	171.2080535888672	-276.7301940917969	1152.892822265625	187.637191772461	-50.43262863159188	1309.756958007813	23.80574226379395	-53.66104888916021	991.801025390625	161.5910949707031	-43.29319763183599	932.6799926757813	138.4183197021484	-46.00274276733403	931.9591674804688	188.8278503417969	-101.1788635253907	708.4011840820313	-15.75972270965576	-67.48786926269536	653.2131958007813	-10.72827816009521	-116.1428604125977	645.5577392578125	-20.20649337768554	64.37918853759763	391.1926574707031	7.69061183929443	119.6323471069336	355.0648498535156	7.291989803314202	76.64672088623045	326.9988098144531	12.23789501190185	301.660400390625	133.5820770263672	93.76538085937499	149.9387359619141	27.69732666015626	112.006950378418	195.9946441650391	12.80827140808107	54.60025787353514	-222.4851531982422	728.31396484375	333.73193359375	-229.9762878417969	663.3789672851563	329.2150268554688	-273.4836730957032	686.65380859375	329.7380676269531	-317.6361389160156	364.1321716308594	297.8313293457031	-313.2962951660156	299.0498352050781	296.0728149414063	-360.3570251464844	314.5497741699219	294.151611328125	-347.6396179199219	17.6993770599365	213.4515075683594	-542.1207885742188	66.06563568115232	223.528549194336	-507.2147521972656	26.73454666137692	276.4310302734376	-88.05880737304712	726.5065307617188	-3209.685791015625	
117	1.16	-74.75617980957038	1373.34814453125	143.6621704101563	-53.5905838012696	1156.830200195313	153.1221923828125	-221.5229644775391	1312.301147460938	172.2191009521484	-292.7061462402344	1152.761352539063	187.9297027587891	-65.02205657958993	1309.547241210938	25.59909248352051	-69.87301635742192	991.4290161132813	162.0614166259766	-59.5757446289063	932.122802734375	139.3463897705078	-62.2728652954102	931.7740478515625	189.7740783691406	-118.7453384399414	706.4812622070313	-15.0262861251831	-85.52458190917973	650.9762573242188	-10.3411169052124	-134.1965637207032	643.7987670898438	-20.06878662109374	46.80793380737303	390.7301635742188	6.036996841430661	103.6761016845703	356.5941467285156	6.263679504394525	61.21699142456053	327.0145263671875	10.32052516937256	290.5664367675781	143.3951263427735	92.7889938354492	150.0746002197266	27.54753303527833	112.0894927978515	195.2951202392578	15.28468513488771	54.61841201782225	-239.4597778320313	729.0714111328125	334.7098999023438	-247.1728973388672	664.3597412109375	329.5509948730469	-290.6575317382813	687.6710205078125	330.0160827636719	-331.7664489746094	364.1947021484375	298.0154113769531	-326.1599426269531	299.3815612792969	296.4244079589844	-373.6411743164063	314.0936889648438	294.0118408203125	-348.3485107421875	18.95469474792478	213.646728515625	-546.279296875	56.743537902832	219.6831207275391	-509.6944274902344	20.22219467163083	274.4125976562501	-88.05950164794946	726.5072021484375	-3209.69189453125	
118	1.17	-89.86338043212898	1373.145629882813	145.5179290771484	-69.29315185546881	1156.535034179688	154.2072296142578	-236.984848022461	1312.3046875	173.145248413086	-308.6268615722657	1152.908813476563	188.1073150634766	-79.52339935302743	1309.642578125	27.39303398132325	-85.99339294433598	991.358154296875	162.4750671386719	-75.77242279052739	931.8615112304688	140.2224731445313	-78.44012451171879	931.8941040039063	190.6696014404297	-136.8518066406251	704.5819702148438	-14.29645919799804	-104.3104324340821	648.6375732421875	-9.963896751403801	-153.0369567871094	642.08544921875	-19.85412979125975	27.6611518859863	390.1484680175781	4.328861713409422	85.95586395263669	357.9454040527344	5.18660688400268	44.11997985839842	326.9294738769531	8.32595062255859	277.6220397949219	153.9205932617188	91.92729187011717	149.4066467285156	27.92049026489259	112.0137100219726	193.4898834228516	18.90683364868165	54.40629577636717	-256.0426940917969	730.0740356445313	335.7322998046875	-263.7084350585938	665.53173828125	329.9732971191406	-307.2396545410157	688.7892456054688	330.4361572265625	-345.1544494628906	364.3868103027344	298.3210144042969	-338.3480224609375	299.9114990234375	297.0602111816406	-386.3438415527344	313.9117126464844	294.05712890625	-348.8869018554688	20.43779945373533	214.0390625	-549.7400512695313	48.41426849365231	216.6373291015625	-511.554443359375	14.73821449279782	273.1878967285157	-88.06021118164087	726.5078735351563	-3209.697998046875	
119	1.18	-104.9253997802735	1373.238891601563	147.3603820800781	-84.92223358154303	1156.54248046875	155.2462005615234	-252.3887939453126	1312.592529296875	173.9800109863282	-324.4642944335938	1153.331298828125	188.1714172363282	-93.92714691162118	1310.042724609375	29.17758560180665	-101.9880294799805	991.589111328125	162.8513946533203	-91.84624481201176	931.9022827148438	141.0528564453125	-94.47256469726567	932.3145141601563	191.5201110839844	-155.4450378417969	702.7655029296875	-13.59069538116454	-123.7941131591797	646.2659301757813	-9.608530998229973	-172.6075286865235	640.4840698242188	-19.57800102233886	6.910334587097144	389.482666015625	2.587533473968505	66.36763763427732	359.0797729492188	4.001372814178462	25.28307723999021	326.7606506347656	6.304960727691649	262.8351745605469	165.0234832763672	91.16581726074217	147.4431610107422	28.98732185363771	111.6786575317383	190.1217193603516	23.78421020507814	53.88545608520506	-272.1555786132813	731.2669677734375	336.7799987792969	-279.5123291015626	666.831787109375	330.4897155761719	-323.1536254882813	689.9395141601563	331.0135192871094	-357.7306823730469	364.6663513183594	298.7221984863281	-349.7674255371094	300.5740966796875	297.9194946289063	-398.3110046386719	313.8532409667969	294.1907653808594	-349.4013671875	21.98905372619627	214.5297088623047	-552.5795288085938	41.3882904052734	214.3399505615235	-512.9519653320313	10.45762252807614	272.6395263671876	-88.06093597412134	726.5086059570313	-3209.704345703125	
